<svg width="75" height="24" viewBox="0 0 75 24" fill="none" xmlns="http://www.w3.org/2000/svg">
<g clip-path="url(#clip0_4121_214)">
<path d="M33.428 18H36.403V13.07H37.627L40.194 18H43.526L40.058 11.693V11.659L43.339 5.845H40.143L37.627 10.537H36.403V5.845H33.428V18ZM44.6067 13.614C44.6067 15.943 46.2897 18.204 49.4177 18.204C51.7467 18.204 53.1577 16.929 53.1577 16.929L52.0697 14.872C52.0697 14.872 50.9137 15.756 49.6557 15.756C48.7207 15.756 47.8367 15.263 47.6157 14.192H53.1407C53.1407 14.192 53.2087 13.563 53.2087 13.274C53.2087 10.843 51.7467 9.041 49.1627 9.041C46.3407 9.041 44.6067 11.047 44.6067 13.614ZM47.6837 12.509C47.8367 11.863 48.2447 11.251 49.0947 11.251C49.7917 11.251 50.2507 11.846 50.2507 12.509H47.6837ZM54.6958 13.614C54.6958 15.943 56.3788 18.204 59.5068 18.204C61.8358 18.204 63.2468 16.929 63.2468 16.929L62.1588 14.872C62.1588 14.872 61.0028 15.756 59.7448 15.756C58.8098 15.756 57.9258 15.263 57.7048 14.192H63.2298C63.2298 14.192 63.2978 13.563 63.2978 13.274C63.2978 10.843 61.8358 9.041 59.2518 9.041C56.4298 9.041 54.6958 11.047 54.6958 13.614ZM57.7728 12.509C57.9258 11.863 58.3338 11.251 59.1838 11.251C59.8808 11.251 60.3398 11.846 60.3398 12.509H57.7728ZM65.4139 18H68.3549V14.124C68.3549 13.699 68.4059 13.308 68.5249 12.968C68.7799 12.22 69.3409 11.71 70.2589 11.71C70.9049 11.71 71.2279 12.05 71.2279 12.866V18H74.1689V12.322C74.1689 9.857 72.7919 9.041 71.0239 9.041C69.4769 9.041 68.6439 9.874 68.2359 10.554H68.2019C68.2019 10.554 68.2359 10.299 68.2359 10.01V9.245H65.4139V18Z" fill="white"/>
<path fill-rule="evenodd" clip-rule="evenodd" d="M20.1344 17.3191C20.9698 18.1575 22.3742 18.0993 22.9204 17.0493C23.8002 15.3581 24 13.7136 24 12C24 10.2562 23.6074 8.26631 22.8077 6.70178C22.3148 5.73731 21.0639 5.70285 20.2715 6.44131L16.2066 10.2295C15.109 11.4098 15.109 12.1967 16.2066 13.377L20.1344 17.3191ZM18.1336 19.4217C19.0024 20.2119 19.0112 21.5931 18.0163 22.2171C16.2139 23.3476 14.09 24 11.816 24C5.29019 24 0 18.6274 0 12C0 5.37258 5.29019 0 11.816 0C14.0031 0 16.0514 0.603482 17.8083 1.65543C18.8121 2.25641 18.8365 3.6311 17.9927 4.4414L13.3133 8.93479C12.9737 9.26091 12.5241 9.44262 12.0567 9.44262C11.0465 9.44262 10.2276 8.61096 10.2276 7.58505V5.90164C10.2276 4.97926 9.49912 4.23152 8.60048 4.23152C7.70185 4.23152 6.97337 4.97926 6.97337 5.90164V18.3955C6.97337 19.3178 7.70185 20.0656 8.60048 20.0656C9.49912 20.0656 10.2276 19.3178 10.2276 18.3955V16.4359C10.2276 15.3984 11.0558 14.5574 12.0774 14.5574C12.5327 14.5574 12.9721 14.728 13.3113 15.0364L18.1336 19.4217Z" fill="white"/>
</g>
<defs>
<clipPath id="clip0_4121_214">
<rect width="75" height="24" fill="white"/>
</clipPath>
</defs>
</svg>
