<?xml version="1.0" standalone="no"?><!DOCTYPE svg PUBLIC "-//W3C//DTD SVG 1.1//EN" "http://www.w3.org/Graphics/SVG/1.1/DTD/svg11.dtd"><svg t="1565073159199" class="icon" viewBox="0 0 1024 1024" version="1.1" xmlns="http://www.w3.org/2000/svg" p-id="5814" xmlns:xlink="http://www.w3.org/1999/xlink" width="200" height="200"><defs><style type="text/css"></style></defs><path d="M376.228 1.63 81.42 1.63c-44.068 0-79.789 35.721-79.789 79.775L1.631 376.24c0 44.056 35.721 79.777 79.789 79.777l294.808 0c44.067 0 79.787-35.721 79.787-79.777L456.015 81.405C456.015 37.351 420.296 1.63 376.228 1.63zM399.218 339.384c0 33.043-26.79 59.834-59.849 59.834L118.277 399.218c-33.059 0-59.849-26.791-59.849-59.834l0-221.12c0-33.046 26.79-59.834 59.849-59.834l221.092 0c33.059 0 59.849 26.79 59.849 59.834L399.218 339.384zM944.223 1.63 649.387 1.63c-44.053 0-79.771 35.721-79.771 79.775L569.616 376.24c0 44.056 35.719 79.777 79.771 79.777l294.836 0c44.055 0 79.777-35.721 79.777-79.777L1024 81.405C1024 37.351 988.277 1.63 944.223 1.63zM967.199 339.384c0 33.043-26.787 59.834-59.848 59.834L686.26 399.218c-33.059 0-59.848-26.791-59.848-59.834l0-221.12c0-33.046 26.789-59.834 59.848-59.834l221.092 0c33.061 0 59.848 26.79 59.848 59.834L967.2 339.384zM944.223 569.613 649.387 569.613c-44.053 0-79.771 35.72-79.771 79.774l0 294.835c0 44.056 35.719 79.777 79.771 79.777l294.836 0c44.055 0 79.777-35.722 79.777-79.777L1024 649.388C1024 605.333 988.277 569.613 944.223 569.613zM967.199 907.366c0 33.043-26.787 59.835-59.848 59.835L686.26 967.201c-33.059 0-59.848-26.792-59.848-59.835L626.412 686.247c0-33.045 26.789-59.835 59.848-59.835l221.092 0c33.061 0 59.848 26.79 59.848 59.835L967.2 907.366zM377.31 569.613 80.338 569.613c-43.472 0-78.707 35.235-78.707 78.694l0 296.998c0 43.458 35.236 78.693 78.707 78.693L377.31 1023.998c43.473 0 78.707-35.235 78.707-78.693L456.017 648.308C456.015 604.849 420.782 569.613 377.31 569.613zM399.218 907.366c0 33.043-26.79 59.835-59.849 59.835L118.277 967.201c-33.059 0-59.849-26.792-59.849-59.835L58.428 686.247c0-33.045 26.79-59.835 59.849-59.835l221.092 0c33.059 0 59.849 26.79 59.849 59.835L399.218 907.366z" p-id="5815"></path></svg>