<?xml version="1.0" standalone="no"?><!DOCTYPE svg PUBLIC "-//W3C//DTD SVG 1.1//EN" "http://www.w3.org/Graphics/SVG/1.1/DTD/svg11.dtd"><svg t="1565066388048" class="icon" viewBox="0 0 1024 1024" version="1.1" xmlns="http://www.w3.org/2000/svg" p-id="5128" xmlns:xlink="http://www.w3.org/1999/xlink" width="200" height="200"><defs><style type="text/css"></style></defs><path d="M251.25 452.4l521.5 0 0 29.8-521.5 0 0-29.8Z" p-id="5129"></path><path d="M251.25 616.301l521.5 0 0 29.8-521.5 0 0-29.8Z" p-id="5130"></path><path d="M251.25 780.2l253.3 0 0 29.801-253.3 0 0-29.801Z" p-id="5131"></path><path d="M884.457 301.407l0-0.189-0.189 0L649.214 65.204 649.214 65l-29.8 0L610 65 139.5 65l0 894 744.957 0L884.457 340.592l0-39.068 0.043-0.059L884.457 301.407zM649.214 107.445l195.155 195.94-195.155-0.015L649.214 107.445zM854.656 929.2 169.3 929.2 169.3 94.8l450.114 0 0 208.571L619.414 318.3l0 14.9 235.242-0.015L854.656 929.2z" p-id="5132"></path></svg>