<?xml version="1.0" standalone="no"?><!DOCTYPE svg PUBLIC "-//W3C//DTD SVG 1.1//EN" "http://www.w3.org/Graphics/SVG/1.1/DTD/svg11.dtd"><svg t="1565066060453" class="icon" viewBox="0 0 1024 1024" version="1.1" xmlns="http://www.w3.org/2000/svg" p-id="1119" xmlns:xlink="http://www.w3.org/1999/xlink" width="200" height="200"><defs><style type="text/css"></style></defs><path d="M972.8 108.8l-89.6 0-108.8 0L627.2 0 396.8 0 249.6 108.8 140.8 108.8 44.8 108.8C19.2 108.8 0 140.8 0 166.4l0 44.8C0 236.8 19.2 256 44.8 256l44.8 0 0 716.8c0 25.6 25.6 51.2 51.2 51.2l742.4 0c25.6 0 51.2-25.6 51.2-51.2L934.4 256l44.8 0C998.4 256 1024 236.8 1024 211.2L1024 166.4C1024 140.8 998.4 108.8 972.8 108.8L972.8 108.8 972.8 108.8zM326.4 851.2c0 19.2-19.2 32-38.4 32L268.8 883.2c-19.2 0-32-12.8-32-32L236.8 294.4C236.8 275.2 249.6 256 268.8 256l25.6 0c19.2 0 38.4 19.2 38.4 38.4L326.4 851.2 326.4 851.2 326.4 851.2zM563.2 851.2c0 19.2-25.6 32-44.8 32L499.2 883.2c-19.2 0-44.8-12.8-44.8-32L454.4 294.4C454.4 275.2 480 256 499.2 256l25.6 0c19.2 0 44.8 19.2 44.8 38.4L563.2 851.2 563.2 851.2 563.2 851.2zM787.2 294.4l0 556.8c0 19.2-12.8 32-32 32l-25.6 0c-19.2 0-38.4-12.8-38.4-32L691.2 294.4c0-19.2 19.2-38.4 38.4-38.4l25.6 0C774.4 256 787.2 275.2 787.2 294.4L787.2 294.4 787.2 294.4z" p-id="1120"></path></svg>