<?xml version="1.0" standalone="no"?><!DOCTYPE svg PUBLIC "-//W3C//DTD SVG 1.1//EN" "http://www.w3.org/Graphics/SVG/1.1/DTD/svg11.dtd"><svg t="1565073214141" class="icon" viewBox="0 0 1024 1024" version="1.1" xmlns="http://www.w3.org/2000/svg" p-id="7633" xmlns:xlink="http://www.w3.org/1999/xlink" width="200" height="200"><defs><style type="text/css"></style></defs><path d="M871.206788 96.969697h-153.289697A90.949818 90.949818 0 0 0 627.494788 12.939636h-244.394667a90.949818 90.949818 0 0 0-90.422303 84.030061H125.176242c-51.324121 0-93.090909 41.766788-93.090909 93.090909v125.424485c0 51.324121 41.766788 93.090909 93.090909 93.090909h34.164364a91.911758 91.911758 0 0 0-5.709576 31.030303v462.87903c0 51.324121 41.735758 93.090909 93.090909 93.090909H749.661091c51.324121 0 93.090909-41.766788 93.090909-93.090909V439.606303c0-10.953697-2.234182-21.286788-5.709576-31.030303h34.164364c51.324121 0 93.090909-41.766788 93.090909-93.090909V190.060606c0-51.324121-41.766788-93.090909-93.090909-93.090909z m-488.106667-21.969455h244.394667c13.498182 0 24.389818 9.464242 27.648 21.969455h-299.690667a28.765091 28.765091 0 0 1 27.648-21.969455zM271.266909 933.515636h-24.54497c-17.128727 0-31.030303-13.932606-31.030303-31.030303V439.606303c0-17.097697 13.901576-31.030303 31.030303-31.030303h24.54497v524.939636z m195.863273 0H333.327515V408.576h133.802667v524.939636z m189.44 0h-127.348364V408.576h127.348364v524.939636z m124.121212-31.030303c0 17.097697-13.932606 31.030303-31.030303 31.030303h-31.030303V408.576h31.030303c17.097697 0 31.030303 13.932606 31.030303 31.030303v462.87903z m121.545697-587.000242c0 17.097697-13.932606 31.030303-31.030303 31.030303H125.176242c-17.097697 0-31.030303-13.932606-31.030303-31.030303V190.060606c0-17.097697 13.932606-31.030303 31.030303-31.030303h746.030546c17.097697 0 31.030303 13.932606 31.030303 31.030303v125.424485z" p-id="7634"></path></svg>