<?xml version="1.0" standalone="no"?><!DOCTYPE svg PUBLIC "-//W3C//DTD SVG 1.1//EN" "http://www.w3.org/Graphics/SVG/1.1/DTD/svg11.dtd"><svg t="1565066286637" class="icon" viewBox="0 0 1024 1024" version="1.1" xmlns="http://www.w3.org/2000/svg" p-id="2662" xmlns:xlink="http://www.w3.org/1999/xlink" width="200" height="200"><defs><style type="text/css"></style></defs><path d="M786.637 989.867h-615.731c-56.593 0-102.639-46.046-102.639-102.639v-684.169c0-56.593 46.046-102.639 102.639-102.639h478.925c18.91 0 34.202 15.326 34.202 34.202s-15.292 34.202-34.202 34.202h-478.925c-18.842 0-34.202 15.36-34.202 34.202v684.169c0 18.876 15.36 34.202 34.202 34.202h615.765c18.876 0 34.202-15.326 34.202-34.202v-547.294c0-18.876 15.292-34.202 34.202-34.202s34.202 15.326 34.202 34.202v547.328c0 56.593-46.046 102.639-102.639 102.639v0zM585.66 442.539c-8.772 0-17.51-3.345-24.166-10.035-13.38-13.38-13.38-34.987 0-48.367l339.968-339.968c13.38-13.38 34.987-13.38 48.367 0 13.38 13.38 13.38 34.987 0 48.367l-339.968 339.968c-6.656 6.69-15.428 10.035-24.201 10.035v0zM444.553 442.539h-205.244c-18.876 0-34.202-15.326-34.202-34.202s15.326-34.202 34.202-34.202h205.244c18.876 0 34.202 15.326 34.202 34.202s-15.326 34.202-34.202 34.202v0zM649.83 647.782h-410.522c-18.876 0-34.202-15.292-34.202-34.202s15.326-34.202 34.202-34.202h410.487c18.91 0 34.202 15.292 34.202 34.202 0.034 18.91-15.258 34.202-34.167 34.202v0zM649.83 647.782z" p-id="2663"></path></svg>