<?xml version="1.0" standalone="no"?><!DOCTYPE svg PUBLIC "-//W3C//DTD SVG 1.1//EN" "http://www.w3.org/Graphics/SVG/1.1/DTD/svg11.dtd"><svg t="1565073204055" class="icon" viewBox="0 0 1024 1024" version="1.1" xmlns="http://www.w3.org/2000/svg" p-id="7000" xmlns:xlink="http://www.w3.org/1999/xlink" width="200" height="200"><defs><style type="text/css"></style></defs><path d="M1023.99808 582.976827a47.99991 47.99991 0 0 0-47.99991-47.99991h-119.999775V48.00183a47.99991 47.99991 0 0 0-47.99991-47.99991H411.007229l-0.319999 0.064a47.615911 47.615911 0 0 0-34.239936 14.015974L182.207658 208.321529a47.487911 47.487911 0 0 0-13.887974 34.751935c0 0.511999-0.256 0.959998-0.255999 1.407998 0 1.471997 0.703999 2.751995 0.831998 4.223992-0.192 1.535997-0.895998 2.815995-0.895998 4.287992v281.983471H47.99991a47.99991 47.99991 0 0 0-47.99991 47.99991c0 0.703999 0.383999 1.343997 0.383999 1.983996 0 0.703999-0.383999 1.343997-0.383999 2.047996v388.991271c0 26.49595 21.50396 47.99991 47.99991 47.99991h927.99826a47.99991 47.99991 0 0 0 47.99991-47.99991v-369.023308c0-4.223992-1.343997-8.063985-2.431995-12.031978 1.087998-3.903993 2.431995-7.679986 2.431995-11.967977z m-927.99826 47.99991h210.751605c31.359941 82.879845 110.847792 142.015734 204.735616 142.015734s173.311675-59.135889 204.735616-142.015734H927.99826V928.00018h-831.99844v-297.023443z m334.975372-434.431186H329.727382L430.271193 96.00174h0.767999v100.543811z m-166.975687 95.99982h214.015599a47.551911 47.551911 0 0 0 45.119915-33.663936 47.679911 47.679911 0 0 0 3.903993-18.879965V96.00174h233.023563v438.975177H632.126815c1.023998 6.207988 3.007994 12.031977 3.007994 18.495965a123.583768 123.583768 0 0 1-247.039537 0c0-6.527988 1.983996-12.287977 2.943995-18.495965H263.999505V292.545371z" p-id="7001"></path></svg>