<?xml version="1.0" standalone="no"?><!DOCTYPE svg PUBLIC "-//W3C//DTD SVG 1.1//EN" "http://www.w3.org/Graphics/SVG/1.1/DTD/svg11.dtd"><svg t="1565073183990" class="icon" viewBox="0 0 1024 1024" version="1.1" xmlns="http://www.w3.org/2000/svg" p-id="6676" xmlns:xlink="http://www.w3.org/1999/xlink" width="200" height="200"><defs><style type="text/css"></style></defs><path d="M300.6 900.6c-5.1-4.9-8.3-11.8-8.3-19.5V698.9c-1.1-8.1 1.4-16.7 7.7-22.9l268.5-268.5c10.6-10.6 27.8-10.6 38.4 0 10.6 10.6 10.6 27.8 0 38.4L346.5 706.2v114.1L456 710.7c10.6-10.6 27.8-10.6 38.4 0l99.4 99.4 157.8-532.5-532.4 157.9 82.1 82.1c1 0.8 2 1.6 2.9 2.5 10.6 10.6 10.6 27.8 0 38.4-10.5 10.5-27.5 10.6-38.1 0.2l-0.2 0.2-161.7-161.7L828.4 201 632.3 925.2l-157-157-134.5 134.5c-10.6 10.6-27.8 10.6-38.4 0-0.6-0.7-1.3-1.4-1.8-2.1z" p-id="6677"></path></svg>