<svg width="24" height="24" viewBox="0 0 24 24" fill="none" xmlns="http://www.w3.org/2000/svg">
<path fill-rule="evenodd" clip-rule="evenodd" d="M20.1344 17.3191C20.9698 18.1575 22.3742 18.0993 22.9204 17.0493C23.8002 15.3581 24 13.7136 24 12C24 10.2562 23.6074 8.26631 22.8077 6.70178C22.3148 5.73731 21.0639 5.70285 20.2715 6.44131L16.2066 10.2295C15.109 11.4098 15.109 12.1967 16.2066 13.377L20.1344 17.3191ZM18.1336 19.4217C19.0024 20.2119 19.0112 21.5931 18.0163 22.2171C16.2139 23.3476 14.09 24 11.816 24C5.29019 24 0 18.6274 0 12C0 5.37258 5.29019 0 11.816 0C14.0031 0 16.0514 0.603482 17.8083 1.65543C18.8121 2.25641 18.8365 3.6311 17.9927 4.4414L13.3133 8.93479C12.9737 9.26091 12.5241 9.44262 12.0567 9.44262C11.0465 9.44262 10.2276 8.61096 10.2276 7.58505V5.90164C10.2276 4.97926 9.49912 4.23152 8.60048 4.23152C7.70185 4.23152 6.97337 4.97926 6.97337 5.90164V18.3955C6.97337 19.3178 7.70185 20.0656 8.60048 20.0656C9.49912 20.0656 10.2276 19.3178 10.2276 18.3955V16.4359C10.2276 15.3984 11.0558 14.5574 12.0774 14.5574C12.5327 14.5574 12.9721 14.728 13.3113 15.0364L18.1336 19.4217Z" fill="#3E97FF"/>
</svg>
